<svg width="225" height="251" viewBox="0 0 225 251" fill="none" xmlns="http://www.w3.org/2000/svg">
<path d="M114.485 65.0806L168.475 96.8962C169.107 97.2683 169.891 97.2652 170.52 96.8881L179.142 91.715C180.436 90.9382 180.436 89.0618 179.142 88.285L113.005 48.6031C112.384 48.2307 111.611 48.2228 110.983 48.5824L44.0064 86.9239C43.384 87.2802 43 87.9424 43 88.6596V114.883C43 115.577 43.36 116.222 43.9511 116.586L110.965 157.862C111.601 158.254 112.402 158.259 113.043 157.874L166.471 125.817C167.804 125.018 169.5 125.978 169.5 127.532V151.815C169.5 152.546 169.102 153.218 168.461 153.569L112.997 183.954C112.379 184.293 111.628 184.281 111.021 183.923L59.4853 153.58C58.8748 153.221 58.5 152.565 58.5 151.857V141.506C58.5 140.873 58.2002 140.278 57.6917 139.9L46.1917 131.368C44.8719 130.389 43 131.331 43 132.974V159.383C43 160.077 43.36 160.722 43.9511 161.086L110.959 202.359C111.598 202.752 112.404 202.755 113.045 202.365L181.038 161.084C181.635 160.721 182 160.073 182 159.375V103.946C182 102.411 180.341 101.448 179.008 102.21L113.023 139.915C112.392 140.276 111.614 140.266 110.993 139.888L59.4616 108.584C58.8645 108.221 58.5 107.573 58.5 106.875V96.1778C58.5 95.451 58.8944 94.7813 59.5301 94.4288L112.5 65.0546C113.12 64.711 113.875 64.7209 114.485 65.0806Z" fill="#CD5954"/>
<path d="M11 71L110.5 10L210.5 70V180.5L113.5 240.5L11 180.5H35L113.5 223L197 171.5V78.5L110.5 27L26 78.5L11 71Z" fill="#CD5954"/>
<path d="M26.1042 78.0642L11 71V181H36L26.1042 172.927V78.0642Z" fill="#CD5954"/>
</svg>
